<svg width="32" height="32" viewBox="0 0 32 32" fill="none" xmlns="http://www.w3.org/2000/svg">
<path d="M16 32C24.8366 32 32 24.8366 32 16C32 7.16344 24.8366 0 16 0C7.16344 0 0 7.16344 0 16C0 24.8366 7.16344 32 16 32Z" fill="#F4B731"/>
<path fill-rule="evenodd" clip-rule="evenodd" d="M16.6629 24H11.3143H9.53144V22.2667V18.8H7.20001V16.9333H9.53144V15.0667H7.20001V13.2H9.53144V9.73333V8H11.3143H16.6629C20.1942 8 23.2059 10.1626 24.3734 13.2H26.4V15.0667H24.836C24.8726 15.3728 24.8914 15.6842 24.8914 16C24.8914 16.3158 24.8726 16.6272 24.836 16.9333H26.4V18.8H24.3734C23.2059 21.8374 20.1942 24 16.6629 24ZM22.2938 18.8C21.2362 20.8553 19.0505 22.2667 16.5257 22.2667H11.3143V18.8H22.2938ZM22.9004 16.9333H11.3143V15.0667H22.9004C22.9472 15.3712 22.9714 15.6828 22.9714 16C22.9714 16.3172 22.9472 16.6288 22.9004 16.9333ZM22.2938 13.2H11.3143V9.73333H16.5257C19.0505 9.73333 21.2362 11.1447 22.2938 13.2Z" fill="white"/>
<g style="mix-blend-mode:soft-light">
<path d="M16 32C24.8366 32 32 24.8366 32 16C32 7.16344 24.8366 0 16 0C7.16344 0 0 7.16344 0 16C0 24.8366 7.16344 32 16 32Z" fill="url(#paint0_linear)"/>
<path d="M31.5 16C31.5 24.5604 24.5604 31.5 16 31.5C7.43959 31.5 0.5 24.5604 0.5 16C0.5 7.43959 7.43959 0.5 16 0.5C24.5604 0.5 31.5 7.43959 31.5 16Z" stroke="black" stroke-opacity="0.2"/>
</g>
<defs>
<linearGradient id="paint0_linear" x1="16" y1="0" x2="16" y2="32" gradientUnits="userSpaceOnUse">
<stop stop-color="#C4C4C4"/>
<stop offset="1" stop-color="#C4C4C4" stop-opacity="0"/>
</linearGradient>
</defs>
</svg>
