<svg width="32" height="32" viewBox="0 0 32 32" fill="none" xmlns="http://www.w3.org/2000/svg">
<path d="M16 31C24.2843 31 31 24.2843 31 16C31 7.71573 24.2843 1 16 1C7.71573 1 1 7.71573 1 16C1 24.2843 7.71573 31 16 31Z" fill="#1E1A31"/>
<path d="M18.7276 20.3908H21.0868C21.4161 20.3908 21.664 20.3277 21.8306 20.2016C21.9972 20.0755 22.0805 19.8768 22.0805 19.6056C22.0805 19.3343 21.9972 19.1346 21.8306 19.0066C21.664 18.8786 21.4161 18.8146 21.0868 18.8146H18.7276V17.9549H21.0403C21.6214 17.9549 22.065 18.0953 22.371 18.3762C22.6771 18.657 22.8301 19.0668 22.8301 19.6056C22.8301 20.1443 22.6771 20.5532 22.371 20.8321C22.065 21.111 21.6214 21.2505 21.0403 21.2505H18.7276V20.3908ZM21.4703 16.6137C21.6718 16.5984 21.8335 16.5172 21.9555 16.3701C22.0776 16.223 22.1386 16.0272 22.1386 15.7827C22.1386 15.5802 22.095 15.4149 22.0078 15.2869C21.9207 15.1589 21.7996 15.0949 21.6447 15.0949C21.5362 15.0949 21.45 15.1302 21.3861 15.2009C21.3221 15.2716 21.2718 15.371 21.235 15.499C21.1982 15.627 21.1527 15.8247 21.0984 16.0922C21.0481 16.3558 20.9832 16.5774 20.9038 16.757C20.8243 16.9366 20.7062 17.0828 20.5493 17.1955C20.3924 17.3082 20.1842 17.3646 19.9246 17.3646C19.6883 17.3646 19.4772 17.3006 19.2912 17.1725C19.1053 17.0445 18.959 16.8669 18.8525 16.6395C18.746 16.4122 18.6927 16.1552 18.6927 15.8686C18.6927 15.5744 18.7479 15.3098 18.8583 15.0748C18.9687 14.8398 19.1208 14.6545 19.3145 14.5189C19.5082 14.3832 19.727 14.3135 19.9711 14.3097V15.1522C19.7968 15.1713 19.6563 15.2439 19.5498 15.37C19.4433 15.4961 19.39 15.6623 19.39 15.8686C19.39 16.0597 19.4307 16.2125 19.512 16.3272C19.5934 16.4418 19.7096 16.4991 19.8607 16.4991C19.9692 16.4991 20.0534 16.4647 20.1135 16.3959C20.1735 16.3272 20.2219 16.2297 20.2587 16.1036C20.2955 15.9775 20.3391 15.7827 20.3895 15.519C20.4399 15.2515 20.5028 15.0261 20.5783 14.8427C20.6539 14.6593 20.7682 14.5112 20.9212 14.3985C21.0742 14.2858 21.2786 14.2294 21.5342 14.2294C21.7822 14.2294 22.004 14.2963 22.1996 14.43C22.3952 14.5638 22.5492 14.75 22.6616 14.9889C22.7739 15.2277 22.8301 15.4961 22.8301 15.7941C22.8301 16.1151 22.771 16.4007 22.6529 16.651C22.5347 16.9013 22.371 17.0971 22.1618 17.2385C21.9526 17.3798 21.7183 17.4524 21.4587 17.4563L21.4703 16.6137ZM18.7276 13.7136V12.3209C18.7276 11.9197 18.8137 11.5653 18.9861 11.2577C19.1585 10.9501 19.3987 10.7132 19.7067 10.547C20.0147 10.3808 20.3662 10.2976 20.7614 10.2976C21.1565 10.2976 21.5081 10.3808 21.8161 10.547C22.1241 10.7132 22.3642 10.9501 22.5366 11.2577C22.709 11.5653 22.7952 11.9197 22.7952 12.3209V13.7136H18.7276ZM22.0689 12.3209C22.0689 11.9579 21.9497 11.6761 21.7115 11.4755C21.4732 11.2749 21.1565 11.1746 20.7614 11.1746C20.3662 11.1746 20.0495 11.2749 19.8113 11.4755C19.573 11.6761 19.4539 11.9579 19.4539 12.3209V12.8539H22.0689V12.3209Z" fill="black"/>
<path d="M18.7276 20.3908H21.0868C21.4161 20.3908 21.664 20.3277 21.8306 20.2016C21.9972 20.0755 22.0805 19.8768 22.0805 19.6056C22.0805 19.3343 21.9972 19.1346 21.8306 19.0066C21.664 18.8786 21.4161 18.8146 21.0868 18.8146H18.7276V17.9549H21.0403C21.6214 17.9549 22.065 18.0953 22.371 18.3762C22.6771 18.657 22.8301 19.0668 22.8301 19.6056C22.8301 20.1443 22.6771 20.5532 22.371 20.8321C22.065 21.111 21.6214 21.2505 21.0403 21.2505H18.7276V20.3908ZM21.4703 16.6137C21.6718 16.5984 21.8335 16.5172 21.9555 16.3701C22.0776 16.223 22.1386 16.0272 22.1386 15.7827C22.1386 15.5802 22.095 15.4149 22.0078 15.2869C21.9207 15.1589 21.7996 15.0949 21.6447 15.0949C21.5362 15.0949 21.45 15.1302 21.3861 15.2009C21.3221 15.2716 21.2718 15.371 21.235 15.499C21.1982 15.627 21.1527 15.8247 21.0984 16.0922C21.0481 16.3558 20.9832 16.5774 20.9038 16.757C20.8243 16.9366 20.7062 17.0828 20.5493 17.1955C20.3924 17.3082 20.1842 17.3646 19.9246 17.3646C19.6883 17.3646 19.4772 17.3006 19.2912 17.1725C19.1053 17.0445 18.959 16.8669 18.8525 16.6395C18.746 16.4122 18.6927 16.1552 18.6927 15.8686C18.6927 15.5744 18.7479 15.3098 18.8583 15.0748C18.9687 14.8398 19.1208 14.6545 19.3145 14.5189C19.5082 14.3832 19.727 14.3135 19.9711 14.3097V15.1522C19.7968 15.1713 19.6563 15.2439 19.5498 15.37C19.4433 15.4961 19.39 15.6623 19.39 15.8686C19.39 16.0597 19.4307 16.2125 19.512 16.3272C19.5934 16.4418 19.7096 16.4991 19.8607 16.4991C19.9692 16.4991 20.0534 16.4647 20.1135 16.3959C20.1735 16.3272 20.2219 16.2297 20.2587 16.1036C20.2955 15.9775 20.3391 15.7827 20.3895 15.519C20.4399 15.2515 20.5028 15.0261 20.5783 14.8427C20.6539 14.6593 20.7682 14.5112 20.9212 14.3985C21.0742 14.2858 21.2786 14.2294 21.5342 14.2294C21.7822 14.2294 22.004 14.2963 22.1996 14.43C22.3952 14.5638 22.5492 14.75 22.6616 14.9889C22.7739 15.2277 22.8301 15.4961 22.8301 15.7941C22.8301 16.1151 22.771 16.4007 22.6529 16.651C22.5347 16.9013 22.371 17.0971 22.1618 17.2385C21.9526 17.3798 21.7183 17.4524 21.4587 17.4563L21.4703 16.6137ZM18.7276 13.7136V12.3209C18.7276 11.9197 18.8137 11.5653 18.9861 11.2577C19.1585 10.9501 19.3987 10.7132 19.7067 10.547C20.0147 10.3808 20.3662 10.2976 20.7614 10.2976C21.1565 10.2976 21.5081 10.3808 21.8161 10.547C22.1241 10.7132 22.3642 10.9501 22.5366 11.2577C22.709 11.5653 22.7952 11.9197 22.7952 12.3209V13.7136H18.7276ZM22.0689 12.3209C22.0689 11.9579 21.9497 11.6761 21.7115 11.4755C21.4732 11.2749 21.1565 11.1746 20.7614 11.1746C20.3662 11.1746 20.0495 11.2749 19.8113 11.4755C19.573 11.6761 19.4539 11.9579 19.4539 12.3209V12.8539H22.0689V12.3209Z" fill="white"/>
<path d="M14.3193 15.0245C16.1824 15.0245 17.6928 16.5349 17.6928 18.398C17.6928 20.2611 16.1824 21.7715 14.3193 21.7715H9.35828C8.94898 21.7715 8.61718 21.4397 8.61718 21.0304C8.61718 20.6211 8.94898 20.2893 9.35828 20.2893H14.3193C15.3638 20.2893 16.2106 19.4425 16.2106 18.398C16.2106 17.3535 15.3638 16.5067 14.3193 16.5067L11.9907 16.5067C10.1276 16.5067 8.6172 14.9964 8.6172 13.1332C8.6172 11.2701 10.1276 9.75977 11.9907 9.75977H16.9517C17.361 9.75977 17.6928 10.0916 17.6928 10.5009C17.6928 10.9102 17.361 11.242 16.9517 11.242H11.9907C10.9461 11.242 10.0994 12.0887 10.0994 13.1332C10.0994 14.1778 10.9461 15.0245 11.9907 15.0245L14.3193 15.0245Z" fill="white"/>
<path fill-rule="evenodd" clip-rule="evenodd" d="M15.5028 11.242L12.7751 15.0245L11.7143 16.4956L8.75734 20.596C8.89199 20.41 9.11115 20.2893 9.35828 20.2893H10.8059L13.5336 16.5067L14.5945 15.0356L17.5335 10.96C17.3977 11.1317 17.1876 11.242 16.9517 11.242H15.5028Z" fill="white" fill-opacity="0.5"/>
<g style="mix-blend-mode:soft-light">
<path d="M16 31C24.2843 31 31 24.2843 31 16C31 7.71573 24.2843 1 16 1C7.71573 1 1 7.71573 1 16C1 24.2843 7.71573 31 16 31Z" fill="url(#paint0_linear)"/>
<path d="M30.5 16C30.5 24.0081 24.0081 30.5 16 30.5C7.99187 30.5 1.5 24.0081 1.5 16C1.5 7.99187 7.99187 1.5 16 1.5C24.0081 1.5 30.5 7.99187 30.5 16Z" stroke="black" stroke-opacity="0.2"/>
</g>
<defs>
<linearGradient id="paint0_linear" x1="16" y1="1" x2="16" y2="31" gradientUnits="userSpaceOnUse">
<stop stop-color="#C4C4C4"/>
<stop offset="1" stop-color="#C4C4C4" stop-opacity="0"/>
</linearGradient>
</defs>
</svg>
