<svg width="32" height="32" viewBox="0 0 32 32" fill="none" xmlns="http://www.w3.org/2000/svg">
<path fill-rule="evenodd" clip-rule="evenodd" d="M32 16C32 24.8366 24.8366 32 16 32C7.16344 32 0 24.8366 0 16C0 7.16344 7.16344 0 16 0C24.8366 0 32 7.16344 32 16ZM16.6629 24H11.3143H9.53144V22.2667V18.8H7.20001V16.9333H9.53144V15.0667H7.20001V13.2H9.53144V9.73333V8H11.3143H16.6629C20.1942 8 23.2059 10.1626 24.3734 13.2H26.4V15.0667H24.836C24.8726 15.3728 24.8914 15.6842 24.8914 16C24.8914 16.3158 24.8726 16.6272 24.836 16.9333H26.4V18.8H24.3734C23.2059 21.8374 20.1942 24 16.6629 24Z" fill="white"/>
<path d="M11.3143 13.2H22.2938C21.2362 11.1447 19.0505 9.73333 16.5257 9.73333H11.3143V13.2Z" fill="white"/>
<path d="M11.3143 16.9333H22.9004C22.9472 16.6288 22.9714 16.3172 22.9714 16C22.9714 15.6828 22.9472 15.3712 22.9004 15.0667H11.3143V16.9333Z" fill="white"/>
<path d="M16.5257 22.2667C19.0505 22.2667 21.2362 20.8553 22.2938 18.8H11.3143V22.2667H16.5257Z" fill="white"/>
</svg>
