<svg width="32" height="32" viewBox="0 0 32 32" fill="none" xmlns="http://www.w3.org/2000/svg">
<path fill-rule="evenodd" clip-rule="evenodd" d="M32 16C32 24.8366 24.8366 32 16 32C7.16344 32 0 24.8366 0 16C0 7.16344 7.16344 0 16 0C24.8366 0 32 7.16344 32 16ZM5.86932 12.587V22H4V11.0651C4 10.1882 5.02749 9.68833 5.74611 10.2156L14.6254 16.7306C14.8991 16.9314 15.0601 17.2461 15.0601 17.5801V22H13.1908V17.959L5.86932 12.587ZM26.1183 12.587V22H27.9876V11.0651C27.9876 10.1882 26.9601 9.68833 26.2415 10.2156L17.3622 16.7306C17.0884 16.9314 16.9275 17.2461 16.9275 17.5801V22H18.7968V17.959L26.1183 12.587Z" fill="black"/>
</svg>
