<svg width="32" height="32" viewBox="0 0 32 32" fill="none" xmlns="http://www.w3.org/2000/svg">
<path d="M16 32C24.8366 32 32 24.8366 32 16C32 7.16344 24.8366 0 16 0C7.16344 0 0 7.16344 0 16C0 24.8366 7.16344 32 16 32Z" fill="#1AAB9B"/>
<path d="M5.86932 22V12.587L13.1908 17.959V22H15.0601V17.5801C15.0601 17.2461 14.8991 16.9314 14.6254 16.7306L5.74611 10.2156C5.02749 9.68833 4 10.1882 4 11.0651V22H5.86932Z" fill="white"/>
<path d="M26.1183 22V12.587L18.7968 17.959V22H16.9275V17.5801C16.9275 17.2461 17.0885 16.9314 17.3622 16.7306L26.2415 10.2156C26.9601 9.68833 27.9876 10.1882 27.9876 11.0651V22H26.1183Z" fill="white"/>
</svg>
