<svg width="32" height="32" viewBox="0 0 32 32" fill="none" xmlns="http://www.w3.org/2000/svg">
<path d="M16 32C24.8366 32 32 24.8366 32 16C32 7.16344 24.8366 0 16 0C7.16344 0 0 7.16344 0 16C0 24.8366 7.16344 32 16 32Z" fill="#1E1A31"/>
<path d="M18.9094 20.6834H21.4259C21.7772 20.6834 22.0416 20.6162 22.2193 20.4817C22.397 20.3472 22.4858 20.1352 22.4858 19.8459C22.4858 19.5565 22.397 19.3435 22.2193 19.207C22.0416 19.0705 21.7772 19.0022 21.4259 19.0022H18.9094V18.0852H21.3763C21.9962 18.0852 22.4693 18.2349 22.7958 18.5345C23.1222 18.8341 23.2854 19.2712 23.2854 19.8459C23.2854 20.4205 23.1222 20.8566 22.7958 21.1542C22.4693 21.4517 21.9962 21.6005 21.3763 21.6005H18.9094V20.6834ZM21.835 16.6546C22.0499 16.6383 22.2224 16.5517 22.3526 16.3948C22.4827 16.2378 22.5478 16.029 22.5478 15.7681C22.5478 15.5521 22.5013 15.3758 22.4084 15.2393C22.3154 15.1028 22.1862 15.0345 22.021 15.0345C21.9053 15.0345 21.8133 15.0722 21.7451 15.1476C21.6769 15.223 21.6232 15.329 21.584 15.4655C21.5447 15.602 21.4962 15.813 21.4383 16.0983C21.3846 16.3795 21.3154 16.6159 21.2307 16.8074C21.146 16.999 21.0199 17.1549 20.8526 17.2751C20.6852 17.3953 20.4631 17.4555 20.1862 17.4555C19.9342 17.4555 19.709 17.3872 19.5106 17.2507C19.3123 17.1141 19.1563 16.9246 19.0426 16.6821C18.929 16.4396 18.8722 16.1655 18.8722 15.8598C18.8722 15.546 18.9311 15.2638 19.0488 15.0131C19.1666 14.7624 19.3288 14.5648 19.5354 14.4201C19.742 14.2754 19.9755 14.201 20.2358 14.1969V15.0956C20.0499 15.116 19.9001 15.1934 19.7865 15.3279C19.6728 15.4624 19.616 15.6397 19.616 15.8598C19.616 16.0636 19.6594 16.2266 19.7462 16.3489C19.8329 16.4712 19.9569 16.5323 20.1181 16.5323C20.2338 16.5323 20.3236 16.4956 20.3877 16.4223C20.4517 16.3489 20.5034 16.245 20.5427 16.1105C20.5819 15.976 20.6284 15.7681 20.6821 15.4869C20.7358 15.2016 20.803 14.9611 20.8836 14.7655C20.9641 14.5699 21.086 14.4119 21.2493 14.2917C21.4125 14.1715 21.6305 14.1113 21.9032 14.1113C22.1677 14.1113 22.4042 14.1827 22.6129 14.3253C22.8216 14.468 22.9858 14.6667 23.1057 14.9214C23.2255 15.1761 23.2854 15.4624 23.2854 15.7803C23.2854 16.1227 23.2224 16.4274 23.0964 16.6943C22.9703 16.9613 22.7958 17.1702 22.5726 17.321C22.3495 17.4718 22.0995 17.5492 21.8226 17.5533L21.835 16.6546ZM18.9094 13.5611V12.0755C18.9094 11.6476 19.0013 11.2696 19.1852 10.9415C19.3691 10.6134 19.6253 10.3607 19.9538 10.1834C20.2823 10.0061 20.6573 9.91743 21.0788 9.91743C21.5003 9.91743 21.8753 10.0061 22.2038 10.1834C22.5323 10.3607 22.7885 10.6134 22.9724 10.9415C23.1563 11.2696 23.2482 11.6476 23.2482 12.0755V13.5611H18.9094ZM22.4734 12.0755C22.4734 11.6883 22.3464 11.3877 22.0922 11.1738C21.8381 10.9598 21.5003 10.8528 21.0788 10.8528C20.6573 10.8528 20.3195 10.9598 20.0654 11.1738C19.8112 11.3877 19.6842 11.6883 19.6842 12.0755V12.6441H22.4734V12.0755Z" fill="black"/>
<path d="M18.9094 20.6834H21.4259C21.7772 20.6834 22.0416 20.6162 22.2193 20.4817C22.397 20.3472 22.4858 20.1352 22.4858 19.8459C22.4858 19.5565 22.397 19.3435 22.2193 19.207C22.0416 19.0705 21.7772 19.0022 21.4259 19.0022H18.9094V18.0852H21.3763C21.9962 18.0852 22.4693 18.2349 22.7958 18.5345C23.1222 18.8341 23.2854 19.2712 23.2854 19.8459C23.2854 20.4205 23.1222 20.8566 22.7958 21.1542C22.4693 21.4517 21.9962 21.6005 21.3763 21.6005H18.9094V20.6834ZM21.835 16.6546C22.0499 16.6383 22.2224 16.5517 22.3526 16.3948C22.4827 16.2378 22.5478 16.029 22.5478 15.7681C22.5478 15.5521 22.5013 15.3758 22.4084 15.2393C22.3154 15.1028 22.1862 15.0345 22.021 15.0345C21.9053 15.0345 21.8133 15.0722 21.7451 15.1476C21.6769 15.223 21.6232 15.329 21.584 15.4655C21.5447 15.602 21.4962 15.813 21.4383 16.0983C21.3846 16.3795 21.3154 16.6159 21.2307 16.8074C21.146 16.999 21.0199 17.1549 20.8526 17.2751C20.6852 17.3953 20.4631 17.4555 20.1862 17.4555C19.9342 17.4555 19.709 17.3872 19.5106 17.2507C19.3123 17.1141 19.1563 16.9246 19.0426 16.6821C18.929 16.4396 18.8722 16.1655 18.8722 15.8598C18.8722 15.546 18.9311 15.2638 19.0488 15.0131C19.1666 14.7624 19.3288 14.5648 19.5354 14.4201C19.742 14.2754 19.9755 14.201 20.2358 14.1969V15.0956C20.0499 15.116 19.9001 15.1934 19.7865 15.3279C19.6728 15.4624 19.616 15.6397 19.616 15.8598C19.616 16.0636 19.6594 16.2266 19.7462 16.3489C19.8329 16.4712 19.9569 16.5323 20.1181 16.5323C20.2338 16.5323 20.3236 16.4956 20.3877 16.4223C20.4517 16.3489 20.5034 16.245 20.5427 16.1105C20.5819 15.976 20.6284 15.7681 20.6821 15.4869C20.7358 15.2016 20.803 14.9611 20.8836 14.7655C20.9641 14.5699 21.086 14.4119 21.2493 14.2917C21.4125 14.1715 21.6305 14.1113 21.9032 14.1113C22.1677 14.1113 22.4042 14.1827 22.6129 14.3253C22.8216 14.468 22.9858 14.6667 23.1057 14.9214C23.2255 15.1761 23.2854 15.4624 23.2854 15.7803C23.2854 16.1227 23.2224 16.4274 23.0964 16.6943C22.9703 16.9613 22.7958 17.1702 22.5726 17.321C22.3495 17.4718 22.0995 17.5492 21.8226 17.5533L21.835 16.6546ZM18.9094 13.5611V12.0755C18.9094 11.6476 19.0013 11.2696 19.1852 10.9415C19.3691 10.6134 19.6253 10.3607 19.9538 10.1834C20.2823 10.0061 20.6573 9.91743 21.0788 9.91743C21.5003 9.91743 21.8753 10.0061 22.2038 10.1834C22.5323 10.3607 22.7885 10.6134 22.9724 10.9415C23.1563 11.2696 23.2482 11.6476 23.2482 12.0755V13.5611H18.9094ZM22.4734 12.0755C22.4734 11.6883 22.3464 11.3877 22.0922 11.1738C21.8381 10.9598 21.5003 10.8528 21.0788 10.8528C20.6573 10.8528 20.3195 10.9598 20.0654 11.1738C19.8112 11.3877 19.6842 11.6883 19.6842 12.0755V12.6441H22.4734V12.0755Z" fill="white"/>
<path d="M14.2073 14.9595C16.1946 14.9595 17.8056 16.5705 17.8056 18.5579C17.8056 20.5452 16.1946 22.1562 14.2073 22.1562H8.9155C8.47892 22.1562 8.125 21.8023 8.125 21.3657C8.125 20.9292 8.47892 20.5752 8.9155 20.5752H14.2073C15.3214 20.5752 16.2246 19.672 16.2246 18.5579C16.2246 17.4437 15.3214 16.5405 14.2073 16.5405L11.7234 16.5405C9.73606 16.5405 8.12501 14.9295 8.12501 12.9421C8.12501 10.9548 9.73606 9.34375 11.7234 9.34375H17.0151C17.4517 9.34375 17.8056 9.69767 17.8056 10.1343C17.8056 10.5708 17.4517 10.9248 17.0151 10.9248H11.7234C10.6092 10.9248 9.70602 11.828 9.70602 12.9421C9.70602 14.0563 10.6092 14.9595 11.7234 14.9595L14.2073 14.9595Z" fill="white"/>
<path fill-rule="evenodd" clip-rule="evenodd" d="M15.4696 10.9248L12.5601 14.9595L11.4285 16.5286L8.27449 20.9024C8.41812 20.704 8.6519 20.5752 8.9155 20.5752H10.4596L13.3692 16.5405L14.5008 14.9713L17.6357 10.624C17.4909 10.8072 17.2668 10.9248 17.0151 10.9248H15.4696Z" fill="white" fill-opacity="0.5"/>
</svg>
